<?xml version="1.0" encoding="UTF-8" standalone="no"?>
<!DOCTYPE svg PUBLIC "-//W3C//DTD SVG 1.1//EN"
 "http://www.w3.org/Graphics/SVG/1.1/DTD/svg11.dtd">
<!-- Generated by graphviz version 2.43.0 (0)
 -->
<!-- Title: Incident_Response_Battle_Cards Pages: 1 -->
<svg width="720pt" height="59pt"
 viewBox="0.00 0.00 720.00 59.34" xmlns="http://www.w3.org/2000/svg" xmlns:xlink="http://www.w3.org/1999/xlink">
<g id="graph0" class="graph" transform="scale(0.32 0.32) rotate(0) translate(4 184)">
<title>Incident_Response_Battle_Cards</title>
<polygon fill="white" stroke="transparent" points="-4,4 -4,-184 2277.23,-184 2277.23,4 -4,4"/>
<!-- IRBC -->
<g id="node1" class="node">
<title>IRBC</title>
<polygon fill="#1f77b4" stroke="#1f77b4" points="1319.94,-180 1077.94,-180 1077.94,-144 1319.94,-144 1319.94,-180"/>
<text text-anchor="middle" x="1198.94" y="-158.3" font-family="Times,serif" font-size="14.00" fill="white">Incident Response Battle Cards</text>
</g>
<!-- Cloud -->
<g id="node2" class="node">
<title>Cloud</title>
<polygon fill="#ff7f0e" stroke="#ff7f0e" points="324.94,-108 266.94,-108 266.94,-72 324.94,-72 324.94,-108"/>
<text text-anchor="middle" x="295.94" y="-86.3" font-family="Times,serif" font-size="14.00" fill="white">Cloud</text>
</g>
<!-- IRBC&#45;&gt;Cloud -->
<g id="edge1" class="edge">
<title>IRBC&#45;&gt;Cloud</title>
<path fill="none" stroke="black" d="M1077.63,-151.6C871.54,-135.62 462.97,-103.95 335.12,-94.04"/>
<polygon fill="black" stroke="black" points="335.26,-90.54 325.02,-93.25 334.72,-97.52 335.26,-90.54"/>
</g>
<!-- Endpoint -->
<g id="node3" class="node">
<title>Endpoint</title>
<polygon fill="#2ca02c" stroke="#2ca02c" points="760.94,-108 678.94,-108 678.94,-72 760.94,-72 760.94,-108"/>
<text text-anchor="middle" x="719.94" y="-86.3" font-family="Times,serif" font-size="14.00" fill="white">Endpoint</text>
</g>
<!-- IRBC&#45;&gt;Endpoint -->
<g id="edge2" class="edge">
<title>IRBC&#45;&gt;Endpoint</title>
<path fill="none" stroke="black" d="M1082.38,-143.97C982.93,-129.43 844.69,-109.23 770.99,-98.46"/>
<polygon fill="black" stroke="black" points="771.43,-94.99 761.03,-97.01 770.42,-101.91 771.43,-94.99"/>
</g>
<!-- Network -->
<g id="node4" class="node">
<title>Network</title>
<polygon fill="#d62728" stroke="#d62728" points="1184.94,-108 1106.94,-108 1106.94,-72 1184.94,-72 1184.94,-108"/>
<text text-anchor="middle" x="1145.94" y="-86.3" font-family="Times,serif" font-size="14.00" fill="white">Network</text>
</g>
<!-- IRBC&#45;&gt;Network -->
<g id="edge3" class="edge">
<title>IRBC&#45;&gt;Network</title>
<path fill="none" stroke="black" d="M1185.84,-143.7C1179.55,-135.39 1171.89,-125.28 1164.97,-116.14"/>
<polygon fill="black" stroke="black" points="1167.72,-113.96 1158.89,-108.1 1162.14,-118.19 1167.72,-113.96"/>
</g>
<!-- Social -->
<g id="node5" class="node">
<title>Social</title>
<polygon fill="#9467bd" stroke="#9467bd" points="1345.44,-108 1286.44,-108 1286.44,-72 1345.44,-72 1345.44,-108"/>
<text text-anchor="middle" x="1315.94" y="-86.3" font-family="Times,serif" font-size="14.00" fill="white">Social</text>
</g>
<!-- IRBC&#45;&gt;Social -->
<g id="edge4" class="edge">
<title>IRBC&#45;&gt;Social</title>
<path fill="none" stroke="black" d="M1227.56,-143.88C1242.86,-134.72 1261.88,-123.34 1278.36,-113.48"/>
<polygon fill="black" stroke="black" points="1280.42,-116.33 1287.21,-108.19 1276.83,-110.32 1280.42,-116.33"/>
</g>
<!-- General -->
<g id="node6" class="node">
<title>General</title>
<polygon fill="#8c564b" stroke="#8c564b" points="1829.44,-108 1756.44,-108 1756.44,-72 1829.44,-72 1829.44,-108"/>
<text text-anchor="middle" x="1792.94" y="-86.3" font-family="Times,serif" font-size="14.00" fill="white">General</text>
</g>
<!-- IRBC&#45;&gt;General -->
<g id="edge5" class="edge">
<title>IRBC&#45;&gt;General</title>
<path fill="none" stroke="black" d="M1320.22,-146.71C1451.89,-131.19 1655.51,-107.2 1746.39,-96.49"/>
<polygon fill="black" stroke="black" points="1746.86,-99.95 1756.38,-95.31 1746.04,-93 1746.86,-99.95"/>
</g>
<!-- Web -->
<g id="node7" class="node">
<title>Web</title>
<polygon fill="#17becf" stroke="#17becf" points="2041.94,-108 1987.94,-108 1987.94,-72 2041.94,-72 2041.94,-108"/>
<text text-anchor="middle" x="2014.94" y="-86.3" font-family="Times,serif" font-size="14.00" fill="white">Web</text>
</g>
<!-- IRBC&#45;&gt;Web -->
<g id="edge6" class="edge">
<title>IRBC&#45;&gt;Web</title>
<path fill="none" stroke="black" d="M1320,-151.43C1448.54,-141.16 1657.63,-124.14 1837.94,-108 1886.21,-103.68 1941.85,-98.26 1977.66,-94.72"/>
<polygon fill="black" stroke="black" points="1978.05,-98.2 1987.66,-93.73 1977.36,-91.23 1978.05,-98.2"/>
</g>
<!-- CloudMisconfig -->
<g id="node8" class="node">
<title>CloudMisconfig</title>
<ellipse fill="none" stroke="black" cx="118.94" cy="-18" rx="118.88" ry="18"/>
<text text-anchor="middle" x="118.94" y="-14.3" font-family="Times,serif" font-size="14.00">Cloud Misconfiguration</text>
</g>
<!-- Cloud&#45;&gt;CloudMisconfig -->
<g id="edge7" class="edge">
<title>Cloud&#45;&gt;CloudMisconfig</title>
<path fill="none" stroke="black" d="M266.71,-77.44C240.19,-66.95 200.54,-51.27 168.98,-38.79"/>
<polygon fill="black" stroke="black" points="170.06,-35.45 159.47,-35.03 167.48,-41.96 170.06,-35.45"/>
</g>
<!-- Malware -->
<g id="node9" class="node">
<title>Malware</title>
<ellipse fill="none" stroke="black" cx="350.94" cy="-18" rx="94.78" ry="18"/>
<text text-anchor="middle" x="350.94" y="-14.3" font-family="Times,serif" font-size="14.00">Malware Infection</text>
</g>
<!-- Endpoint&#45;&gt;Malware -->
<g id="edge8" class="edge">
<title>Endpoint&#45;&gt;Malware</title>
<path fill="none" stroke="black" d="M678.68,-81.17C617.49,-69.57 501.7,-47.6 425.43,-33.13"/>
<polygon fill="black" stroke="black" points="425.88,-29.65 415.4,-31.23 424.57,-36.53 425.88,-29.65"/>
</g>
<!-- DeviceTheft -->
<g id="node10" class="node">
<title>DeviceTheft</title>
<ellipse fill="none" stroke="black" cx="560.94" cy="-18" rx="97.48" ry="18"/>
<text text-anchor="middle" x="560.94" y="-14.3" font-family="Times,serif" font-size="14.00">Lost/Stolen Device</text>
</g>
<!-- Endpoint&#45;&gt;DeviceTheft -->
<g id="edge9" class="edge">
<title>Endpoint&#45;&gt;DeviceTheft</title>
<path fill="none" stroke="black" d="M681.04,-71.88C658.42,-61.92 629.8,-49.31 606.17,-38.91"/>
<polygon fill="black" stroke="black" points="607.28,-35.58 596.72,-34.75 604.46,-41.98 607.28,-35.58"/>
</g>
<!-- CredDump -->
<g id="node11" class="node">
<title>CredDump</title>
<ellipse fill="none" stroke="black" cx="878.94" cy="-18" rx="202.56" ry="18"/>
<text text-anchor="middle" x="878.94" y="-14.3" font-family="Times,serif" font-size="14.00">Credential Dumping / Password Spraying</text>
</g>
<!-- Endpoint&#45;&gt;CredDump -->
<g id="edge10" class="edge">
<title>Endpoint&#45;&gt;CredDump</title>
<path fill="none" stroke="black" d="M758.84,-71.88C780.81,-62.2 808.45,-50.03 831.67,-39.81"/>
<polygon fill="black" stroke="black" points="833.25,-42.94 840.99,-35.71 830.43,-36.53 833.25,-42.94"/>
</g>
<!-- DDoS -->
<g id="node12" class="node">
<title>DDoS</title>
<ellipse fill="none" stroke="black" cx="1136.94" cy="-18" rx="37.09" ry="18"/>
<text text-anchor="middle" x="1136.94" y="-14.3" font-family="Times,serif" font-size="14.00">DDoS</text>
</g>
<!-- Network&#45;&gt;DDoS -->
<g id="edge11" class="edge">
<title>Network&#45;&gt;DDoS</title>
<path fill="none" stroke="black" d="M1143.71,-71.7C1142.72,-63.98 1141.53,-54.71 1140.43,-46.11"/>
<polygon fill="black" stroke="black" points="1143.89,-45.58 1139.14,-36.1 1136.94,-46.47 1143.89,-45.58"/>
</g>
<!-- Phishing -->
<g id="node13" class="node">
<title>Phishing</title>
<ellipse fill="none" stroke="black" cx="1242.94" cy="-18" rx="51.19" ry="18"/>
<text text-anchor="middle" x="1242.94" y="-14.3" font-family="Times,serif" font-size="14.00">Phishing</text>
</g>
<!-- Social&#45;&gt;Phishing -->
<g id="edge12" class="edge">
<title>Social&#45;&gt;Phishing</title>
<path fill="none" stroke="black" d="M1297.89,-71.7C1288.61,-62.79 1277.16,-51.81 1267.12,-42.19"/>
<polygon fill="black" stroke="black" points="1269.42,-39.54 1259.78,-35.14 1264.57,-44.59 1269.42,-39.54"/>
</g>
<!-- Insider -->
<g id="node14" class="node">
<title>Insider</title>
<ellipse fill="none" stroke="black" cx="1389.94" cy="-18" rx="77.19" ry="18"/>
<text text-anchor="middle" x="1389.94" y="-14.3" font-family="Times,serif" font-size="14.00">Insider Threat</text>
</g>
<!-- Social&#45;&gt;Insider -->
<g id="edge13" class="edge">
<title>Social&#45;&gt;Insider</title>
<path fill="none" stroke="black" d="M1334.23,-71.7C1343.51,-62.92 1354.91,-52.13 1364.98,-42.61"/>
<polygon fill="black" stroke="black" points="1367.51,-45.04 1372.37,-35.62 1362.7,-39.95 1367.51,-45.04"/>
</g>
<!-- AccountComp -->
<g id="node15" class="node">
<title>AccountComp</title>
<ellipse fill="none" stroke="black" cx="1594.94" cy="-18" rx="109.38" ry="18"/>
<text text-anchor="middle" x="1594.94" y="-14.3" font-family="Times,serif" font-size="14.00">Account Compromise</text>
</g>
<!-- Social&#45;&gt;AccountComp -->
<g id="edge14" class="edge">
<title>Social&#45;&gt;AccountComp</title>
<path fill="none" stroke="black" d="M1345.53,-81.58C1388.62,-70.76 1469.8,-50.4 1527.84,-35.83"/>
<polygon fill="black" stroke="black" points="1528.82,-39.2 1537.67,-33.37 1527.12,-32.41 1528.82,-39.2"/>
</g>
<!-- Ransomware -->
<g id="node16" class="node">
<title>Ransomware</title>
<ellipse fill="none" stroke="black" cx="1792.94" cy="-18" rx="70.69" ry="18"/>
<text text-anchor="middle" x="1792.94" y="-14.3" font-family="Times,serif" font-size="14.00">Ransomware</text>
</g>
<!-- General&#45;&gt;Ransomware -->
<g id="edge15" class="edge">
<title>General&#45;&gt;Ransomware</title>
<path fill="none" stroke="black" d="M1792.94,-71.7C1792.94,-63.98 1792.94,-54.71 1792.94,-46.11"/>
<polygon fill="black" stroke="black" points="1796.44,-46.1 1792.94,-36.1 1789.44,-46.1 1796.44,-46.1"/>
</g>
<!-- DataBreach -->
<g id="node17" class="node">
<title>DataBreach</title>
<ellipse fill="none" stroke="black" cx="1949.94" cy="-18" rx="68.49" ry="18"/>
<text text-anchor="middle" x="1949.94" y="-14.3" font-family="Times,serif" font-size="14.00">Data Breach</text>
</g>
<!-- General&#45;&gt;DataBreach -->
<g id="edge16" class="edge">
<title>General&#45;&gt;DataBreach</title>
<path fill="none" stroke="black" d="M1829.75,-72.59C1853.03,-62.21 1883.21,-48.75 1907.5,-37.92"/>
<polygon fill="black" stroke="black" points="1909.13,-41.03 1916.83,-33.76 1906.27,-34.64 1909.13,-41.03"/>
</g>
<!-- WebApp -->
<g id="node18" class="node">
<title>WebApp</title>
<ellipse fill="none" stroke="black" cx="2154.94" cy="-18" rx="118.08" ry="18"/>
<text text-anchor="middle" x="2154.94" y="-14.3" font-family="Times,serif" font-size="14.00">Web Application Attack</text>
</g>
<!-- Web&#45;&gt;WebApp -->
<g id="edge17" class="edge">
<title>Web&#45;&gt;WebApp</title>
<path fill="none" stroke="black" d="M2042.27,-75.34C2062.41,-65.27 2090.17,-51.38 2113.1,-39.92"/>
<polygon fill="black" stroke="black" points="2114.89,-42.94 2122.27,-35.33 2111.76,-36.68 2114.89,-42.94"/>
</g>
</g>
</svg>
